<svg width="860" height="868" viewBox="0 0 860 868" fill="none" xmlns="http://www.w3.org/2000/svg">
<g id="svg">
<path id="half-circle" d="M728 596.5C728 524.494 699.396 455.437 648.479 404.521C597.563 353.604 528.506 325 456.5 325C384.494 325 315.437 353.604 264.521 404.52C213.604 455.437 185 524.494 185 596.5L456.5 596.5H728Z" fill="#F72585" fill-opacity="0.3"/>
<rect id="back-cover" x="274" y="264" width="365" height="201" rx="3" fill="#E5E9F7"/>
<g id="computer-content">
<g id="computer-list-2">
<rect id="Rectangle 9" x="275.5" y="265.5" width="143" height="196" rx="3.5" stroke="black" stroke-width="3"/>
<path id="Vector" d="M321.3 284H299.7C298.202 284 297.013 285.224 297.013 286.75L297 303.25C297 304.776 298.202 306 299.7 306H321.3C322.799 306 324 304.776 324 303.25V286.75C324 285.224 322.799 284 321.3 284ZM321.3 299.125C321.3 301.403 319.453 303.25 317.175 303.25H303.825C301.547 303.25 299.7 301.403 299.7 299.125V299.125C299.7 296.847 301.547 295 303.825 295H317.175C319.453 295 321.3 296.847 321.3 299.125V299.125ZM321.3 288.125C321.3 288.884 320.684 289.5 319.925 289.5H301.075C300.316 289.5 299.7 288.884 299.7 288.125V288.125C299.7 287.366 300.316 286.75 301.075 286.75H319.925C320.684 286.75 321.3 287.366 321.3 288.125V288.125Z" fill="black"/>
<path id="014 147" d="M349.594 294.352C349.594 295.888 349.247 297.073 348.555 297.906C347.867 298.74 346.896 299.156 345.641 299.156C344.375 299.156 343.396 298.737 342.703 297.898C342.01 297.06 341.664 295.878 341.664 294.352V292.273C341.664 290.737 342.008 289.552 342.695 288.719C343.388 287.885 344.365 287.469 345.625 287.469C346.885 287.469 347.862 287.888 348.555 288.727C349.247 289.565 349.594 290.75 349.594 292.281V294.352ZM346.961 291.938C346.961 291.12 346.854 290.51 346.641 290.109C346.427 289.703 346.089 289.5 345.625 289.5C345.172 289.5 344.841 289.688 344.633 290.062C344.43 290.438 344.32 291.005 344.305 291.766V294.672C344.305 295.521 344.411 296.143 344.625 296.539C344.839 296.93 345.177 297.125 345.641 297.125C346.089 297.125 346.419 296.935 346.633 296.555C346.846 296.169 346.956 295.568 346.961 294.75V291.938ZM356.797 299H354.156V290.594L351.562 291.352V289.352L356.555 287.625H356.797V299ZM367.18 294.555H368.336V296.586H367.18V299H364.547V296.586H360.148L359.992 294.977L364.547 287.648V287.625H367.18V294.555ZM362.5 294.555H364.547V291.055L364.383 291.32L362.5 294.555ZM379.312 299H376.672V290.594L374.078 291.352V289.352L379.07 287.625H379.312V299ZM389.695 294.555H390.852V296.586H389.695V299H387.062V296.586H382.664L382.508 294.977L387.062 287.648V287.625H389.695V294.555ZM385.016 294.555H387.062V291.055L386.898 291.32L385.016 294.555ZM399.914 289.031L395.664 299H392.883L397.141 289.656H391.719V287.625H399.914V289.031Z" fill="black"/>
<line id="Line 18" x1="273.979" y1="322.5" x2="419.979" y2="320.5" stroke="black" stroke-width="3"/>
<g id="Group 12">
<path id="Vector_2" d="M305.5 340C300.808 340 297 343.808 297 348.5C297 353.192 300.808 357 305.5 357C310.192 357 314 353.192 314 348.5C314 343.808 310.192 340 305.5 340ZM305.925 350.625C304.751 351.799 302.849 351.799 301.675 350.625L300.15 349.1C299.818 348.768 299.818 348.232 300.15 347.9V347.9C300.481 347.569 301.017 347.569 301.348 347.899L302.274 348.823C303.117 349.664 304.482 349.663 305.324 348.821L309.648 344.497C309.981 344.164 310.521 344.164 310.853 344.499V344.499C311.183 344.831 311.182 345.368 310.851 345.699L305.925 350.625Z" fill="black"/>
<path id="Line 19" d="M327 347.5L396 347.5" stroke="black" stroke-width="3"/>
</g>
<g id="Group 14">
<path id="Vector_3" d="M305.5 396C300.808 396 297 399.808 297 404.5C297 409.192 300.808 413 305.5 413C310.192 413 314 409.192 314 404.5C314 399.808 310.192 396 305.5 396ZM305.925 406.625C304.751 407.799 302.849 407.799 301.675 406.625L300.15 405.1C299.818 404.768 299.818 404.232 300.15 403.9V403.9C300.481 403.569 301.017 403.569 301.348 403.899L302.274 404.823C303.117 405.664 304.482 405.663 305.324 404.821L309.648 400.497C309.981 400.164 310.521 400.164 310.853 400.499V400.499C311.183 400.831 311.182 401.368 310.851 401.699L305.925 406.625Z" fill="black"/>
<path id="Line 19_2" d="M327 403.5L396 403.5" stroke="black" stroke-width="3"/>
</g>
<g id="Group 13">
<path id="Vector_4" d="M304.5 368C299.808 368 296 371.808 296 376.5C296 381.192 299.808 385 304.5 385C309.192 385 313 381.192 313 376.5C313 371.808 309.192 368 304.5 368ZM304.925 378.625C303.751 379.799 301.849 379.799 300.675 378.625L299.15 377.1C298.818 376.768 298.818 376.232 299.15 375.9V375.9C299.481 375.569 300.017 375.569 300.348 375.899L301.274 376.823C302.117 377.664 303.482 377.663 304.324 376.821L308.648 372.497C308.981 372.164 309.521 372.164 309.853 372.499V372.499C310.183 372.831 310.182 373.368 309.851 373.699L304.925 378.625Z" fill="black"/>
<path id="Line 19_3" d="M326 375.5L395 375.5" stroke="black" stroke-width="3"/>
</g>
<g id="Group 15">
<path id="Vector_5" d="M304.5 424C299.808 424 296 427.808 296 432.5C296 437.192 299.808 441 304.5 441C309.192 441 313 437.192 313 432.5C313 427.808 309.192 424 304.5 424ZM304.925 434.625C303.751 435.799 301.849 435.799 300.675 434.625L299.15 433.1C298.818 432.768 298.818 432.232 299.15 431.9V431.9C299.481 431.569 300.017 431.569 300.348 431.899L301.274 432.823C302.117 433.664 303.482 433.663 304.324 432.821L308.648 428.497C308.981 428.164 309.521 428.164 309.853 428.499V428.499C310.183 428.831 310.182 429.368 309.851 429.699L304.925 434.625Z" fill="black"/>
<path id="Line 19_4" d="M326 431.5L395 431.5" stroke="black" stroke-width="3"/>
</g>
</g>
</g>
<g id="computer">
<g id="computer_2">
<rect id="Rectangle 6" x="417" y="488" width="79" height="97" fill="#7393DF" stroke="#A68A8A" stroke-width="2"/>
<path id="Rectangle 7" d="M365 588C365 581.925 369.925 577 376 577H536C542.075 577 547 581.925 547 588V594H365V588Z" fill="#7393DF" stroke="#A68A8A" stroke-width="2"/>
<g id="Exclude">
<mask id="path-17-inside-1" fill="white">
<path fill-rule="evenodd" clip-rule="evenodd" d="M267 250C262.582 250 259 253.582 259 258V478.459H652V258C652 253.582 648.418 250 644 250H267ZM276.962 263.141C275.305 263.141 273.962 264.485 273.962 266.141V461.307C273.962 462.964 275.305 464.307 276.962 464.307H635.036C636.692 464.307 638.036 462.964 638.036 461.307V266.141C638.036 264.485 636.692 263.141 635.035 263.141H276.962Z"/>
</mask>
<path fill-rule="evenodd" clip-rule="evenodd" d="M267 250C262.582 250 259 253.582 259 258V478.459H652V258C652 253.582 648.418 250 644 250H267ZM276.962 263.141C275.305 263.141 273.962 264.485 273.962 266.141V461.307C273.962 462.964 275.305 464.307 276.962 464.307H635.036C636.692 464.307 638.036 462.964 638.036 461.307V266.141C638.036 264.485 636.692 263.141 635.035 263.141H276.962Z" fill="#0AE0E0"/>
<path d="M259 478.459H257V480.459H259V478.459ZM652 478.459V480.459H654V478.459H652ZM261 258C261 254.686 263.686 252 267 252V248C261.477 248 257 252.477 257 258H261ZM261 478.459V258H257V478.459H261ZM652 476.459H259V480.459H652V476.459ZM650 258V478.459H654V258H650ZM644 252C647.314 252 650 254.686 650 258H654C654 252.477 649.523 248 644 248V252ZM267 252H644V248H267V252ZM275.962 266.141C275.962 265.589 276.41 265.141 276.962 265.141V261.141C274.201 261.141 271.962 263.38 271.962 266.141H275.962ZM275.962 461.307V266.141H271.962V461.307H275.962ZM276.962 462.307C276.41 462.307 275.962 461.859 275.962 461.307H271.962C271.962 464.068 274.201 466.307 276.962 466.307V462.307ZM635.036 462.307H276.962V466.307H635.036V462.307ZM636.036 461.307C636.036 461.859 635.588 462.307 635.036 462.307V466.307C637.797 466.307 640.036 464.068 640.036 461.307H636.036ZM636.036 266.141V461.307H640.036V266.141H636.036ZM635.035 265.141C635.588 265.141 636.036 265.589 636.036 266.141H640.036C640.036 263.38 637.797 261.141 635.035 261.141V265.141ZM276.962 265.141H635.035V261.141H276.962V265.141Z" fill="#212837" fill-opacity="0.11" mask="url(#path-17-inside-1)"/>
</g>
<path id="Exclude_2" fill-rule="evenodd" clip-rule="evenodd" d="M267 250C262.582 250 259 253.582 259 258V529C259 533.418 262.582 537 267 537H645C649.418 537 653 533.418 653 529V258C653 253.582 649.418 250 645 250H267ZM269 252C264.582 252 261 255.582 261 260V469C261 473.418 264.582 477 269 477H643C647.418 477 651 473.418 651 469V260C651 255.582 647.418 252 643 252H269Z" fill="#7393DF"/>
</g>
</g>
<line id="Line 1" x1="89.5" y1="596.5" x2="822.506" y2="596.5" stroke="#56227C" stroke-width="5" stroke-linecap="round"/>
<g id="intro">
<line id="Line 2" x1="461" y1="695.5" x2="558.046" y2="695.5" stroke="#56227C" stroke-width="5"/>
<line id="Line 3" x1="648" y1="624.5" x2="745.046" y2="624.5" stroke="#56227C" stroke-width="5"/>
<line id="Line 4" x1="234" y1="656.5" x2="331.046" y2="656.5" stroke="#56227C" stroke-width="5"/>
</g>
<path id="mouse" fill-rule="evenodd" clip-rule="evenodd" d="M712.343 305.062C711.619 304.798 710.882 305.417 711.016 306.175L713.817 322.06C713.95 322.818 714.855 323.147 715.444 322.652L719.515 319.237L724.263 324.895L727.968 321.786L723.22 316.128L727.801 312.284C728.39 311.789 728.223 310.842 727.5 310.579L712.343 305.062Z" fill="#9E068F"/>
<g id="bubble">
<circle id="Ellipse 2" cx="103.5" cy="208.5" r="20.5" fill="#82C0CC"/>
<circle id="Ellipse 8" cx="320" cy="160" r="11" fill="#17BEBB"/>
<circle id="Ellipse 7" cx="468.5" cy="133.5" r="26.5" fill="#FF70A6"/>
<circle id="Ellipse 13" cx="443" cy="19" r="19" fill="#9C4206"/>
<circle id="Ellipse 12" cx="17" cy="470" r="17" fill="#FFA62B"/>
<circle id="Ellipse 11" cx="842.5" cy="446.5" r="17.5" fill="#FFD670"/>
<circle id="Ellipse 9" cx="578.5" cy="177.5" r="17.5" fill="#A01A7D"/>
<circle id="Ellipse 6" cx="159.5" cy="390.5" r="20.5" fill="#16697A"/>
<circle id="Ellipse 5" cx="760.5" cy="159.5" r="11.5" fill="#489FB5"/>
<circle id="Ellipse 4" cx="781.5" cy="281.5" r="20.5" fill="#FF9770"/>
<circle id="Ellipse 10" cx="668.5" cy="76.5" r="20.5" fill="#E9FF70"/>
<circle id="Ellipse 3" cx="233.5" cy="71.5" r="15.5" fill="#70D6FF"/>
</g>
</g>
</svg>
