<svg width="860" height="904" viewBox="0 0 860 904" fill="none" xmlns="http://www.w3.org/2000/svg">
<path d="M728 596.5C728 524.494 699.396 455.437 648.479 404.521C597.563 353.604 528.506 325 456.5 325C384.494 325 315.437 353.604 264.521 404.52C213.604 455.437 185 524.494 185 596.5L456.5 596.5H728Z" fill="#F72585" fill-opacity="0.3"/>
<rect x="274" y="264" width="365" height="201" rx="3" fill="#E5E9F7"/>
<line x1="450.212" y1="875.5" x2="500.222" y2="875.5" stroke="black" stroke-width="2"/>
<line x1="555.212" y1="875" x2="605.222" y2="875" stroke="black" stroke-width="2"/>
<line x1="450.212" y1="883" x2="500.222" y2="883" stroke="black" stroke-width="2"/>
<line x1="555.212" y1="882.5" x2="605.222" y2="882.5" stroke="black" stroke-width="2"/>
<line x1="450.212" y1="891" x2="500.222" y2="891" stroke="black" stroke-width="2"/>
<line x1="555.212" y1="890.5" x2="605.222" y2="890.5" stroke="black" stroke-width="2"/>
<path d="M431.212 308.589H635.505" stroke="black" stroke-width="3"/>
<path d="M430.212 365.434H616.839" stroke="black" stroke-width="3"/>
<path d="M475.997 337.24H609.203" stroke="black" stroke-width="3"/>
<rect x="463.074" y="328.558" width="157.356" height="18.2111" rx="3.5" stroke="black" stroke-width="3"/>
<rect x="431.712" y="278.5" width="189" height="18" rx="3.5" stroke="black" stroke-width="3"/>
<rect x="437.152" y="378.965" width="73.5115" height="84.5413" rx="4" stroke="black" stroke-width="2"/>
<rect x="437.152" y="488.414" width="73.5115" height="84.5413" rx="4" stroke="black" stroke-width="2"/>
<rect x="437.152" y="708.161" width="73.5115" height="84.5413" rx="4" stroke="black" stroke-width="2"/>
<rect x="437.152" y="598.712" width="73.5115" height="84.5413" rx="4" stroke="black" stroke-width="2"/>
<rect x="437.152" y="818.459" width="73.5115" height="84.5413" rx="4" stroke="black" stroke-width="2"/>
<rect x="542.359" y="378.965" width="73.5115" height="84.5413" rx="4" stroke="black" stroke-width="2"/>
<rect x="542.359" y="488.414" width="73.5115" height="84.5413" rx="4" stroke="black" stroke-width="2"/>
<rect x="542.359" y="708.161" width="73.5115" height="84.5413" rx="4" stroke="black" stroke-width="2"/>
<rect x="542.359" y="598.712" width="73.5115" height="84.5413" rx="4" stroke="black" stroke-width="2"/>
<rect x="542.359" y="818.459" width="73.5115" height="84.5413" rx="4" stroke="black" stroke-width="2"/>
<line x1="448.833" y1="424.675" x2="498.982" y2="424.675" stroke="black" stroke-width="5" stroke-linecap="round"/>
<line x1="448.833" y1="534.124" x2="498.982" y2="534.124" stroke="black" stroke-width="5" stroke-linecap="round"/>
<line x1="448.833" y1="753.871" x2="498.982" y2="753.871" stroke="black" stroke-width="5" stroke-linecap="round"/>
<line x1="448.833" y1="644.422" x2="498.982" y2="644.422" stroke="black" stroke-width="5" stroke-linecap="round"/>
<line x1="448.833" y1="864.168" x2="498.982" y2="864.168" stroke="black" stroke-width="5" stroke-linecap="round"/>
<line x1="554.04" y1="424.675" x2="604.189" y2="424.675" stroke="black" stroke-width="5" stroke-linecap="round"/>
<line x1="554.04" y1="534.124" x2="604.189" y2="534.124" stroke="black" stroke-width="5" stroke-linecap="round"/>
<line x1="554.04" y1="753.871" x2="604.189" y2="753.871" stroke="black" stroke-width="5" stroke-linecap="round"/>
<line x1="554.04" y1="644.422" x2="604.189" y2="644.422" stroke="black" stroke-width="5" stroke-linecap="round"/>
<line x1="554.04" y1="864.168" x2="604.189" y2="864.168" stroke="black" stroke-width="5" stroke-linecap="round"/>
<line x1="453.969" y1="435.932" x2="496.4" y2="435.932" stroke="black" stroke-width="2"/>
<line x1="453.969" y1="545.381" x2="496.4" y2="545.381" stroke="black" stroke-width="2"/>
<line x1="453.969" y1="765.128" x2="496.4" y2="765.128" stroke="black" stroke-width="2"/>
<line x1="453.969" y1="655.679" x2="496.4" y2="655.679" stroke="black" stroke-width="2"/>
<line x1="559.176" y1="435.932" x2="601.607" y2="435.932" stroke="black" stroke-width="2"/>
<line x1="559.176" y1="545.381" x2="601.607" y2="545.381" stroke="black" stroke-width="2"/>
<line x1="559.176" y1="765.128" x2="601.607" y2="765.128" stroke="black" stroke-width="2"/>
<line x1="559.176" y1="655.679" x2="601.607" y2="655.679" stroke="black" stroke-width="2"/>
<line x1="453.969" y1="442.295" x2="496.4" y2="442.295" stroke="black" stroke-width="2"/>
<line x1="453.969" y1="551.744" x2="496.4" y2="551.744" stroke="black" stroke-width="2"/>
<line x1="453.969" y1="771.491" x2="496.4" y2="771.491" stroke="black" stroke-width="2"/>
<line x1="453.969" y1="662.042" x2="496.4" y2="662.042" stroke="black" stroke-width="2"/>
<line x1="559.176" y1="442.295" x2="601.607" y2="442.295" stroke="black" stroke-width="2"/>
<line x1="559.176" y1="551.744" x2="601.607" y2="551.744" stroke="black" stroke-width="2"/>
<line x1="559.176" y1="771.491" x2="601.607" y2="771.491" stroke="black" stroke-width="2"/>
<line x1="559.176" y1="662.042" x2="601.607" y2="662.042" stroke="black" stroke-width="2"/>
<line x1="453.969" y1="449.083" x2="496.4" y2="449.083" stroke="black" stroke-width="2"/>
<line x1="453.969" y1="558.532" x2="496.4" y2="558.532" stroke="black" stroke-width="2"/>
<line x1="453.969" y1="778.279" x2="496.4" y2="778.279" stroke="black" stroke-width="2"/>
<line x1="453.969" y1="668.829" x2="496.4" y2="668.829" stroke="black" stroke-width="2"/>
<line x1="559.176" y1="449.083" x2="601.607" y2="449.083" stroke="black" stroke-width="2"/>
<line x1="559.176" y1="558.532" x2="601.607" y2="558.532" stroke="black" stroke-width="2"/>
<line x1="559.176" y1="778.279" x2="601.607" y2="778.279" stroke="black" stroke-width="2"/>
<line x1="559.176" y1="668.829" x2="601.607" y2="668.829" stroke="black" stroke-width="2"/>
<rect x="287.5" y="301.5" width="77" height="39" rx="3.5" stroke="black" stroke-width="3"/>
<rect x="275.5" y="264.5" width="101" height="198" stroke="black"/>
<path d="M319.947 313.5H343" stroke="black" stroke-width="3"/>
<path d="M318 327.5H353" stroke="black" stroke-width="3"/>
<rect x="287.5" y="370.5" width="77" height="39" rx="3.5" stroke="black" stroke-width="3"/>
<path d="M329.421 390H352.579" stroke="black" stroke-width="3"/>
<line x1="286" y1="285.5" x2="351" y2="285.5" stroke="black" stroke-width="3"/>
<line x1="377" y1="315.5" x2="639" y2="315.5" stroke="black" stroke-width="3"/>
<line x1="406" y1="385.5" x2="617" y2="385.5" stroke="black" stroke-width="3"/>
<path d="M406 448.5H546M571 448.5H618" stroke="black" stroke-width="3"/>
<rect x="407.5" y="405.5" width="88" height="22" rx="3.5" stroke="black" stroke-width="3"/>
<rect x="513.5" y="405.5" width="88" height="22" rx="3.5" stroke="black" stroke-width="3"/>
<rect x="407.5" y="329.5" width="189" height="36" rx="3.5" stroke="black" stroke-width="3"/>
<line x1="425" y1="348.5" x2="573" y2="348.5" stroke="black" stroke-width="3"/>
<rect x="275.5" y="265.5" width="143" height="196" rx="3.5" stroke="black" stroke-width="3"/>
<line x1="273.979" y1="322.5" x2="419.979" y2="320.5" stroke="black" stroke-width="3"/>
<path d="M327 347.5L396 347.5" stroke="black" stroke-width="3"/>
<path d="M327 403.5L396 403.5" stroke="black" stroke-width="3"/>
<path d="M326 375.5L395 375.5" stroke="black" stroke-width="3"/>
<path d="M326 431.5L395 431.5" stroke="black" stroke-width="3"/>
<rect x="417" y="488" width="79" height="97" fill="#7393DF" stroke="#A68A8A" stroke-width="2"/>
<path d="M365 588C365 581.925 369.925 577 376 577H536C542.075 577 547 581.925 547 588V594H365V588Z" fill="#7393DF" stroke="#A68A8A" stroke-width="2"/>
<mask id="path-80-inside-1" fill="white">
<path fill-rule="evenodd" clip-rule="evenodd" d="M267 250C262.582 250 259 253.582 259 258V478.459H652V258C652 253.582 648.418 250 644 250H267ZM276.962 263.141C275.305 263.141 273.962 264.485 273.962 266.141V461.307C273.962 462.964 275.305 464.307 276.962 464.307H635.036C636.692 464.307 638.036 462.964 638.036 461.307V266.141C638.036 264.485 636.692 263.141 635.035 263.141H276.962Z"/>
</mask>
<path fill-rule="evenodd" clip-rule="evenodd" d="M267 250C262.582 250 259 253.582 259 258V478.459H652V258C652 253.582 648.418 250 644 250H267ZM276.962 263.141C275.305 263.141 273.962 264.485 273.962 266.141V461.307C273.962 462.964 275.305 464.307 276.962 464.307H635.036C636.692 464.307 638.036 462.964 638.036 461.307V266.141C638.036 264.485 636.692 263.141 635.035 263.141H276.962Z" fill="#0AE0E0"/>
<path d="M259 478.459H257V480.459H259V478.459ZM652 478.459V480.459H654V478.459H652ZM261 258C261 254.686 263.686 252 267 252V248C261.477 248 257 252.477 257 258H261ZM261 478.459V258H257V478.459H261ZM652 476.459H259V480.459H652V476.459ZM650 258V478.459H654V258H650ZM644 252C647.314 252 650 254.686 650 258H654C654 252.477 649.523 248 644 248V252ZM267 252H644V248H267V252ZM275.962 266.141C275.962 265.589 276.41 265.141 276.962 265.141V261.141C274.201 261.141 271.962 263.38 271.962 266.141H275.962ZM275.962 461.307V266.141H271.962V461.307H275.962ZM276.962 462.307C276.41 462.307 275.962 461.859 275.962 461.307H271.962C271.962 464.068 274.201 466.307 276.962 466.307V462.307ZM635.036 462.307H276.962V466.307H635.036V462.307ZM636.036 461.307C636.036 461.859 635.588 462.307 635.036 462.307V466.307C637.797 466.307 640.036 464.068 640.036 461.307H636.036ZM636.036 266.141V461.307H640.036V266.141H636.036ZM635.035 265.141C635.588 265.141 636.036 265.589 636.036 266.141H640.036C640.036 263.38 637.797 261.141 635.035 261.141V265.141ZM276.962 265.141H635.035V261.141H276.962V265.141Z" fill="#212837" fill-opacity="0.11" mask="url(#path-80-inside-1)"/>
<path fill-rule="evenodd" clip-rule="evenodd" d="M267 250C262.582 250 259 253.582 259 258V529C259 533.418 262.582 537 267 537H645C649.418 537 653 533.418 653 529V258C653 253.582 649.418 250 645 250H267ZM269 252C264.582 252 261 255.582 261 260V469C261 473.418 264.582 477 269 477H643C647.418 477 651 473.418 651 469V260C651 255.582 647.418 252 643 252H269Z" fill="#7393DF"/>
<line x1="89.5" y1="596.5" x2="822.506" y2="596.5" stroke="#56227C" stroke-width="5" stroke-linecap="round"/>
<line x1="461" y1="695.5" x2="558.046" y2="695.5" stroke="#56227C" stroke-width="5"/>
<line x1="648" y1="624.5" x2="745.046" y2="624.5" stroke="#56227C" stroke-width="5"/>
<line x1="234" y1="656.5" x2="331.046" y2="656.5" stroke="#56227C" stroke-width="5"/>
<path fill-rule="evenodd" clip-rule="evenodd" d="M712.343 305.062C711.619 304.798 710.882 305.417 711.016 306.175L713.817 322.06C713.95 322.818 714.855 323.147 715.444 322.652L719.515 319.237L724.263 324.895L727.968 321.786L723.22 316.128L727.801 312.284C728.39 311.789 728.223 310.842 727.5 310.579L712.343 305.062Z" fill="#9E068F"/>
<rect x="395" y="282" width="133" height="164" rx="4" stroke="black" stroke-width="2"/>
<path d="M419.5 358.5H500" stroke="black" stroke-width="5" stroke-linecap="round"/>
<path d="M405 389H516.5" stroke="black" stroke-width="2"/>
<path d="M406 400H517.5" stroke="black" stroke-width="2"/>
<path d="M406 378H517.5" stroke="black" stroke-width="2"/>
<path d="M475.25 332.875C476.969 332.875 478.359 331.469 478.359 329.75L478.375 314.125C478.375 312.391 476.969 311 475.25 311H450.25C448.516 311 447.125 312.391 447.125 314.125V329.75C447.125 331.469 448.516 332.875 450.25 332.875H444V336H481.5V332.875H475.25ZM464.312 327.359V323.938C459.969 323.938 457.109 325.266 454.938 328.188C455.812 324.016 458.234 319.859 464.312 319.016V315.688L470.562 321.516L464.312 327.359Z" fill="black"/>
<rect x="435" y="417" width="46.4286" height="10" rx="3" fill="#2C1C1C"/>
<circle cx="103.5" cy="208.5" r="20.5" fill="#82C0CC"/>
<circle cx="320" cy="160" r="11" fill="#17BEBB"/>
<circle cx="468.5" cy="133.5" r="26.5" fill="#FF70A6"/>
<circle cx="443" cy="19" r="19" fill="#9C4206"/>
<circle cx="17" cy="470" r="17" fill="#FFA62B"/>
<circle cx="842.5" cy="446.5" r="17.5" fill="#FFD670"/>
<circle cx="578.5" cy="177.5" r="17.5" fill="#A01A7D"/>
<circle cx="159.5" cy="390.5" r="20.5" fill="#16697A"/>
<circle cx="760.5" cy="159.5" r="11.5" fill="#489FB5"/>
<circle cx="781.5" cy="281.5" r="20.5" fill="#FF9770"/>
<circle cx="668.5" cy="76.5" r="20.5" fill="#E9FF70"/>
<circle cx="233.5" cy="71.5" r="15.5" fill="#70D6FF"/>
<rect x="273" y="263" width="366" height="202" rx="5" fill="#FADDE1"/>
<rect x="273" y="262" width="366" height="163" rx="5" fill="#FFC4D6"/>
<rect x="273" y="262" width="366" height="123" rx="5" fill="#FF97B7"/>
</svg>
