<svg width="146" height="199" viewBox="0 0 146 199" fill="none" xmlns="http://www.w3.org/2000/svg">
<g id="computer-list-2">
<rect id="Rectangle 9" x="1.5" y="1.5" width="143" height="196" rx="3.5" stroke="black" stroke-width="3"/>
<path id="Vector" d="M47.3 20H25.7C24.2015 20 23.0135 21.2237 23.0135 22.75L23 39.25C23 40.7763 24.2015 42 25.7 42H47.3C48.7985 42 50 40.7763 50 39.25V22.75C50 21.2237 48.7985 20 47.3 20ZM47.3 35.125C47.3 37.4032 45.4532 39.25 43.175 39.25H29.825C27.5468 39.25 25.7 37.4032 25.7 35.125V35.125C25.7 32.8468 27.5468 31 29.825 31H43.175C45.4532 31 47.3 32.8468 47.3 35.125V35.125ZM47.3 24.125C47.3 24.8844 46.6844 25.5 45.925 25.5H27.075C26.3156 25.5 25.7 24.8844 25.7 24.125V24.125C25.7 23.3656 26.3156 22.75 27.075 22.75H45.925C46.6844 22.75 47.3 23.3656 47.3 24.125V24.125Z" fill="black"/>
<path id="014 147" d="M75.5938 30.3516C75.5938 31.888 75.2474 33.0729 74.5547 33.9062C73.8672 34.7396 72.8958 35.1562 71.6406 35.1562C70.375 35.1562 69.3958 34.737 68.7031 33.8984C68.0104 33.0599 67.6641 31.8776 67.6641 30.3516V28.2734C67.6641 26.737 68.0078 25.5521 68.6953 24.7188C69.388 23.8854 70.3646 23.4688 71.625 23.4688C72.8854 23.4688 73.862 23.888 74.5547 24.7266C75.2474 25.5651 75.5938 26.75 75.5938 28.2812V30.3516ZM72.9609 27.9375C72.9609 27.1198 72.8542 26.5104 72.6406 26.1094C72.4271 25.7031 72.0885 25.5 71.625 25.5C71.1719 25.5 70.8411 25.6875 70.6328 26.0625C70.4297 26.4375 70.3203 27.0052 70.3047 27.7656V30.6719C70.3047 31.5208 70.4115 32.1432 70.625 32.5391C70.8385 32.9297 71.1771 33.125 71.6406 33.125C72.0885 33.125 72.4193 32.9349 72.6328 32.5547C72.8464 32.1693 72.9557 31.5677 72.9609 30.75V27.9375ZM82.7969 35H80.1562V26.5938L77.5625 27.3516V25.3516L82.5547 23.625H82.7969V35ZM93.1797 30.5547H94.3359V32.5859H93.1797V35H90.5469V32.5859H86.1484L85.9922 30.9766L90.5469 23.6484V23.625H93.1797V30.5547ZM88.5 30.5547H90.5469V27.0547L90.3828 27.3203L88.5 30.5547ZM105.312 35H102.672V26.5938L100.078 27.3516V25.3516L105.07 23.625H105.312V35ZM115.695 30.5547H116.852V32.5859H115.695V35H113.062V32.5859H108.664L108.508 30.9766L113.062 23.6484V23.625H115.695V30.5547ZM111.016 30.5547H113.062V27.0547L112.898 27.3203L111.016 30.5547ZM125.914 25.0312L121.664 35H118.883L123.141 25.6562H117.719V23.625H125.914V25.0312Z" fill="black"/>
<line id="Line 18" x1="-0.020546" y1="58.5001" x2="145.979" y2="56.5001" stroke="black" stroke-width="3"/>
<g id="Group 12">
<path id="Vector_2" d="M31.5 76C26.808 76 23 79.808 23 84.5C23 89.192 26.808 93 31.5 93C36.192 93 40 89.192 40 84.5C40 79.808 36.192 76 31.5 76ZM31.925 86.625C30.7514 87.7986 28.8486 87.7986 27.675 86.625L26.1497 85.0997C25.8185 84.7685 25.8185 84.2315 26.1497 83.9003V83.9003C26.4805 83.5695 27.0168 83.5691 27.3482 83.8995L28.2742 84.823C29.1172 85.6636 30.4818 85.6627 31.3236 84.8209L35.648 80.4965C35.981 80.1635 36.5211 80.1645 36.8529 80.4986V80.4986C37.183 80.8311 37.182 81.368 36.8507 81.6993L31.925 86.625Z" fill="black"/>
<path id="Line 19" d="M53 83.5001L122 83.5001" stroke="black" stroke-width="3"/>
</g>
<g id="Group 14">
<path id="Vector_3" d="M31.5 132C26.808 132 23 135.808 23 140.5C23 145.192 26.808 149 31.5 149C36.192 149 40 145.192 40 140.5C40 135.808 36.192 132 31.5 132ZM31.925 142.625C30.7514 143.799 28.8486 143.799 27.675 142.625L26.1497 141.1C25.8185 140.768 25.8185 140.232 26.1497 139.9V139.9C26.4805 139.569 27.0168 139.569 27.3482 139.899L28.2742 140.823C29.1172 141.664 30.4818 141.663 31.3236 140.821L35.648 136.497C35.981 136.164 36.5211 136.164 36.8529 136.499V136.499C37.183 136.831 37.182 137.368 36.8507 137.699L31.925 142.625Z" fill="black"/>
<path id="Line 19_2" d="M53 139.5L122 139.5" stroke="black" stroke-width="3"/>
</g>
<g id="Group 13">
<path id="Vector_4" d="M30.5 104C25.808 104 22 107.808 22 112.5C22 117.192 25.808 121 30.5 121C35.192 121 39 117.192 39 112.5C39 107.808 35.192 104 30.5 104ZM30.925 114.625C29.7514 115.799 27.8486 115.799 26.675 114.625L25.1497 113.1C24.8185 112.768 24.8185 112.232 25.1497 111.9V111.9C25.4805 111.569 26.0168 111.569 26.3482 111.899L27.2742 112.823C28.1172 113.664 29.4818 113.663 30.3236 112.821L34.648 108.497C34.981 108.164 35.5211 108.164 35.8529 108.499V108.499C36.183 108.831 36.182 109.368 35.8507 109.699L30.925 114.625Z" fill="black"/>
<path id="Line 19_3" d="M52 111.5L121 111.5" stroke="black" stroke-width="3"/>
</g>
<g id="Group 15">
<path id="Vector_5" d="M30.5 160C25.808 160 22 163.808 22 168.5C22 173.192 25.808 177 30.5 177C35.192 177 39 173.192 39 168.5C39 163.808 35.192 160 30.5 160ZM30.925 170.625C29.7514 171.799 27.8486 171.799 26.675 170.625L25.1497 169.1C24.8185 168.768 24.8185 168.232 25.1497 167.9V167.9C25.4805 167.569 26.0168 167.569 26.3482 167.899L27.2742 168.823C28.1172 169.664 29.4818 169.663 30.3236 168.821L34.648 164.497C34.981 164.164 35.5211 164.164 35.8529 164.499V164.499C36.183 164.831 36.182 165.368 35.8507 165.699L30.925 170.625Z" fill="black"/>
<path id="Line 19_4" d="M52 167.5L121 167.5" stroke="black" stroke-width="3"/>
</g>
</g>
</svg>
