<svg width="394" height="345" viewBox="0 0 394 345" fill="none" xmlns="http://www.w3.org/2000/svg">
<g id="computer">
<g id="computer_2">
<rect id="Rectangle 6" x="158" y="238" width="79" height="97" fill="#7393DF" stroke="#A68A8A" stroke-width="2"/>
<path id="Rectangle 7" d="M106 338C106 331.925 110.925 327 117 327H277C283.075 327 288 331.925 288 338V344H106V338Z" fill="#7393DF" stroke="#A68A8A" stroke-width="2"/>
<g id="Exclude">
<mask id="path-3-inside-1" fill="white">
<path fill-rule="evenodd" clip-rule="evenodd" d="M8 0C3.58172 0 0 3.58173 0 8.00001V228.459H393V8C393 3.58172 389.418 0 385 0H8ZM17.9619 13.1414C16.3051 13.1414 14.9619 14.4846 14.9619 16.1415V211.307C14.9619 212.964 16.3051 214.307 17.9619 214.307H376.036C377.692 214.307 379.036 212.964 379.036 211.307V16.1414C379.036 14.4846 377.692 13.1414 376.035 13.1414H17.9619Z"/>
</mask>
<path fill-rule="evenodd" clip-rule="evenodd" d="M8 0C3.58172 0 0 3.58173 0 8.00001V228.459H393V8C393 3.58172 389.418 0 385 0H8ZM17.9619 13.1414C16.3051 13.1414 14.9619 14.4846 14.9619 16.1415V211.307C14.9619 212.964 16.3051 214.307 17.9619 214.307H376.036C377.692 214.307 379.036 212.964 379.036 211.307V16.1414C379.036 14.4846 377.692 13.1414 376.035 13.1414H17.9619Z" fill="#0AE0E0"/>
<path d="M0 228.459H-2V230.459H0V228.459ZM393 228.459V230.459H395V228.459H393ZM2 8.00001C2 4.6863 4.68629 2 8 2V-2C2.47715 -2 -2 2.47716 -2 8.00001H2ZM2 228.459V8.00001H-2V228.459H2ZM393 226.459H0V230.459H393V226.459ZM391 8V228.459H395V8H391ZM385 2C388.314 2 391 4.68629 391 8H395C395 2.47715 390.523 -2 385 -2V2ZM8 2H385V-2H8V2ZM16.9619 16.1415C16.9619 15.5892 17.4097 15.1414 17.9619 15.1414V11.1414C15.2005 11.1414 12.9619 13.38 12.9619 16.1415H16.9619ZM16.9619 211.307V16.1415H12.9619V211.307H16.9619ZM17.9619 212.307C17.4097 212.307 16.9619 211.859 16.9619 211.307H12.9619C12.9619 214.068 15.2005 216.307 17.9619 216.307V212.307ZM376.036 212.307H17.9619V216.307H376.036V212.307ZM377.036 211.307C377.036 211.859 376.588 212.307 376.036 212.307V216.307C378.797 216.307 381.036 214.068 381.036 211.307H377.036ZM377.036 16.1414V211.307H381.036V16.1414H377.036ZM376.035 15.1414C376.588 15.1414 377.036 15.5892 377.036 16.1414H381.036C381.036 13.38 378.797 11.1414 376.035 11.1414V15.1414ZM17.9619 15.1414H376.035V11.1414H17.9619V15.1414Z" fill="#212837" fill-opacity="0.11" mask="url(#path-3-inside-1)"/>
</g>
<path id="Exclude_2" fill-rule="evenodd" clip-rule="evenodd" d="M8 0C3.58172 0 0 3.58173 0 8.00001V279C0 283.418 3.58172 287 8 287H386C390.418 287 394 283.418 394 279V8C394 3.58172 390.418 0 386 0H8ZM10 2C5.58172 2 2 5.58172 2 10V219C2 223.418 5.58172 227 10 227H384C388.418 227 392 223.418 392 219V10C392 5.58172 388.418 2 384 2H10Z" fill="#7393DF"/>
</g>
</g>
</svg>
