<svg width="860" height="868" viewBox="0 0 860 868" fill="none" xmlns="http://www.w3.org/2000/svg">
<g id="Group 44">
<g id="Group 43">
<path id="half-circle" d="M728 596.5C728 524.494 699.396 455.437 648.479 404.521C597.563 353.604 528.506 325 456.5 325C384.494 325 315.437 353.604 264.521 404.52C213.604 455.437 185 524.494 185 596.5L456.5 596.5H728Z" fill="#F72585" fill-opacity="0.3"/>
<rect id="back-cover" x="274" y="264" width="365" height="201" rx="3" fill="#E5E9F7"/>
<g id="computer">
<g id="computer_2">
<rect id="Rectangle 6" x="417" y="488" width="79" height="97" fill="#7393DF" stroke="#A68A8A" stroke-width="2"/>
<path id="Rectangle 7" d="M365 588C365 581.925 369.925 577 376 577H536C542.075 577 547 581.925 547 588V594H365V588Z" fill="#7393DF" stroke="#A68A8A" stroke-width="2"/>
<g id="Exclude">
<mask id="path-5-inside-1" fill="white">
<path fill-rule="evenodd" clip-rule="evenodd" d="M267 250C262.582 250 259 253.582 259 258V478.459H652V258C652 253.582 648.418 250 644 250H267ZM276.962 263.141C275.305 263.141 273.962 264.485 273.962 266.141V461.307C273.962 462.964 275.305 464.307 276.962 464.307H635.036C636.692 464.307 638.036 462.964 638.036 461.307V266.141C638.036 264.485 636.692 263.141 635.035 263.141H276.962Z"/>
</mask>
<path fill-rule="evenodd" clip-rule="evenodd" d="M267 250C262.582 250 259 253.582 259 258V478.459H652V258C652 253.582 648.418 250 644 250H267ZM276.962 263.141C275.305 263.141 273.962 264.485 273.962 266.141V461.307C273.962 462.964 275.305 464.307 276.962 464.307H635.036C636.692 464.307 638.036 462.964 638.036 461.307V266.141C638.036 264.485 636.692 263.141 635.035 263.141H276.962Z" fill="#0AE0E0"/>
<path d="M259 478.459H257V480.459H259V478.459ZM652 478.459V480.459H654V478.459H652ZM261 258C261 254.686 263.686 252 267 252V248C261.477 248 257 252.477 257 258H261ZM261 478.459V258H257V478.459H261ZM652 476.459H259V480.459H652V476.459ZM650 258V478.459H654V258H650ZM644 252C647.314 252 650 254.686 650 258H654C654 252.477 649.523 248 644 248V252ZM267 252H644V248H267V252ZM275.962 266.141C275.962 265.589 276.41 265.141 276.962 265.141V261.141C274.201 261.141 271.962 263.38 271.962 266.141H275.962ZM275.962 461.307V266.141H271.962V461.307H275.962ZM276.962 462.307C276.41 462.307 275.962 461.859 275.962 461.307H271.962C271.962 464.068 274.201 466.307 276.962 466.307V462.307ZM635.036 462.307H276.962V466.307H635.036V462.307ZM636.036 461.307C636.036 461.859 635.588 462.307 635.036 462.307V466.307C637.797 466.307 640.036 464.068 640.036 461.307H636.036ZM636.036 266.141V461.307H640.036V266.141H636.036ZM635.035 265.141C635.588 265.141 636.036 265.589 636.036 266.141H640.036C640.036 263.38 637.797 261.141 635.035 261.141V265.141ZM276.962 265.141H635.035V261.141H276.962V265.141Z" fill="#212837" fill-opacity="0.11" mask="url(#path-5-inside-1)"/>
</g>
<path id="Exclude_2" fill-rule="evenodd" clip-rule="evenodd" d="M267 250C262.582 250 259 253.582 259 258V529C259 533.418 262.582 537 267 537H645C649.418 537 653 533.418 653 529V258C653 253.582 649.418 250 645 250H267ZM269 252C264.582 252 261 255.582 261 260V469C261 473.418 264.582 477 269 477H643C647.418 477 651 473.418 651 469V260C651 255.582 647.418 252 643 252H269Z" fill="#7393DF"/>
</g>
</g>
<line id="Line 1" x1="89.5" y1="596.5" x2="822.506" y2="596.5" stroke="#56227C" stroke-width="5" stroke-linecap="round"/>
<g id="intro">
<line id="Line 2" x1="461" y1="695.5" x2="558.046" y2="695.5" stroke="#56227C" stroke-width="5"/>
<line id="Line 3" x1="648" y1="624.5" x2="745.046" y2="624.5" stroke="#56227C" stroke-width="5"/>
<line id="Line 4" x1="234" y1="656.5" x2="331.046" y2="656.5" stroke="#56227C" stroke-width="5"/>
</g>
<g id="bubble">
<circle id="Ellipse 2" cx="103.5" cy="208.5" r="20.5" fill="#82C0CC"/>
<circle id="Ellipse 8" cx="320" cy="160" r="11" fill="#17BEBB"/>
<circle id="Ellipse 7" cx="468.5" cy="133.5" r="26.5" fill="#FF70A6"/>
<circle id="Ellipse 13" cx="443" cy="19" r="19" fill="#9C4206"/>
<circle id="Ellipse 12" cx="17" cy="470" r="17" fill="#FFA62B"/>
<circle id="Ellipse 11" cx="842.5" cy="446.5" r="17.5" fill="#FFD670"/>
<circle id="Ellipse 9" cx="578.5" cy="177.5" r="17.5" fill="#A01A7D"/>
<circle id="Ellipse 6" cx="159.5" cy="390.5" r="20.5" fill="#16697A"/>
<circle id="Ellipse 5" cx="760.5" cy="159.5" r="11.5" fill="#489FB5"/>
<circle id="Ellipse 4" cx="781.5" cy="281.5" r="20.5" fill="#FF9770"/>
<circle id="Ellipse 10" cx="668.5" cy="76.5" r="20.5" fill="#E9FF70"/>
<circle id="Ellipse 3" cx="233.5" cy="71.5" r="15.5" fill="#70D6FF"/>
</g>
<g id="Group 37">
<rect id="Rectangle 34" x="296.5" y="284.5" width="319" height="160" rx="6.5" stroke="#B32BA5" stroke-width="3"/>
<g id="Group 31">
<g id="Group 21">
<path id="Vector" d="M329 334C324.584 334 321 337.584 321 342C321 346.416 324.584 350 329 350C333.416 350 337 346.416 337 342C337 337.584 333.416 334 329 334ZM327.4 346L323.4 342L324.528 340.872L327.4 343.736L333.472 337.664L334.6 338.8L327.4 346Z" fill="#54B57B"/>
<line id="Line 68" x1="348" y1="341" x2="416" y2="341" stroke="#54B57B" stroke-width="2"/>
</g>
<g id="Group 22">
<path id="Vector_2" d="M329 358C324.584 358 321 361.584 321 366C321 370.416 324.584 374 329 374C333.416 374 337 370.416 337 366C337 361.584 333.416 358 329 358ZM327.4 370L323.4 366L324.528 364.872L327.4 367.736L333.472 361.664L334.6 362.8L327.4 370Z" fill="#54B57B"/>
<line id="Line 68_2" x1="348" y1="365" x2="416" y2="365" stroke="#54B57B" stroke-width="2"/>
</g>
<g id="Group 23">
<path id="Vector_3" d="M328 382C323.584 382 320 385.584 320 390C320 394.416 323.584 398 328 398C332.416 398 336 394.416 336 390C336 385.584 332.416 382 328 382ZM326.4 394L322.4 390L323.528 388.872L326.4 391.736L332.472 385.664L333.6 386.8L326.4 394Z" fill="#54B57B"/>
<line id="Line 68_3" x1="347" y1="389" x2="415" y2="389" stroke="#54B57B" stroke-width="2"/>
</g>
<g id="Group 24">
<path id="Vector_4" d="M328 406C323.584 406 320 409.584 320 414C320 418.416 323.584 422 328 422C332.416 422 336 418.416 336 414C336 409.584 332.416 406 328 406ZM326.4 418L322.4 414L323.528 412.872L326.4 415.736L332.472 409.664L333.6 410.8L326.4 418Z" fill="#54B57B"/>
<line id="Line 68_4" x1="347" y1="413" x2="415" y2="413" stroke="#54B57B" stroke-width="2"/>
</g>
</g>
<g id="Group 36">
<rect id="Rectangle 35" x="321.75" y="296.75" width="196.5" height="24.5" rx="4.25" stroke="#17BEBB" stroke-width="1.5"/>
<g id="Group 25">
<line id="Line 69" x1="333" y1="308" x2="426" y2="308" stroke="#7393DF" stroke-width="2"/>
<path id="Line 70" d="M447 309H508" stroke="#7393DF" stroke-width="2"/>
</g>
</g>
<path id="Vector_5" d="M576.5 309H575V305C575 303.9 574.1 303 573 303H569V301.5C569 300.12 567.88 299 566.5 299C565.12 299 564 300.12 564 301.5V303H560C558.9 303 558.01 303.9 558.01 305V308.8H559.5C560.99 308.8 562.2 310.01 562.2 311.5C562.2 312.99 560.99 314.2 559.5 314.2H558V318C558 319.1 558.9 320 560 320H563.8V318.5C563.8 317.01 565.01 315.8 566.5 315.8C567.99 315.8 569.2 317.01 569.2 318.5V320H573C574.1 320 575 319.1 575 318V314H576.5C577.88 314 579 312.88 579 311.5C579 310.12 577.88 309 576.5 309Z" fill="#FF70A6"/>
<g id="Group 35">
<g id="Group 32">
<circle id="Ellipse 14" cx="472" cy="362" r="24.25" stroke="#FF9770" stroke-width="1.5"/>
<path id="Vector_6" d="M471.99 351C466.47 351 462 355.48 462 361C462 366.52 466.47 371 471.99 371C477.52 371 482 366.52 482 361C482 355.48 477.52 351 471.99 351ZM478.92 357H475.97C475.65 355.75 475.19 354.55 474.59 353.44C476.43 354.07 477.96 355.35 478.92 357ZM472 353.04C472.83 354.24 473.48 355.57 473.91 357H470.09C470.52 355.57 471.17 354.24 472 353.04ZM464.26 363C464.1 362.36 464 361.69 464 361C464 360.31 464.1 359.64 464.26 359H467.64C467.56 359.66 467.5 360.32 467.5 361C467.5 361.68 467.56 362.34 467.64 363H464.26ZM465.08 365H468.03C468.35 366.25 468.81 367.45 469.41 368.56C467.57 367.93 466.04 366.66 465.08 365ZM468.03 357H465.08C466.04 355.34 467.57 354.07 469.41 353.44C468.81 354.55 468.35 355.75 468.03 357ZM472 368.96C471.17 367.76 470.52 366.43 470.09 365H473.91C473.48 366.43 472.83 367.76 472 368.96ZM474.34 363H469.66C469.57 362.34 469.5 361.68 469.5 361C469.5 360.32 469.57 359.65 469.66 359H474.34C474.43 359.65 474.5 360.32 474.5 361C474.5 361.68 474.43 362.34 474.34 363ZM474.59 368.56C475.19 367.45 475.65 366.25 475.97 365H478.92C477.96 366.65 476.43 367.93 474.59 368.56ZM476.36 363C476.44 362.34 476.5 361.68 476.5 361C476.5 360.32 476.44 359.66 476.36 359H479.74C479.9 359.64 480 360.31 480 361C480 361.69 479.9 362.36 479.74 363H476.36Z" fill="#56227C"/>
</g>
<g id="Group 33">
<circle id="Ellipse 15" cx="566" cy="362" r="24.25" stroke="#FF9770" stroke-width="1.5"/>
<path id="Vector_7" d="M575 356H573V365H560V367C560 367.55 560.45 368 561 368H572L576 372V357C576 356.45 575.55 356 575 356ZM571 362V353C571 352.45 570.55 352 570 352H557C556.45 352 556 352.45 556 353V367L560 363H570C570.55 363 571 362.55 571 362Z" fill="#56227C"/>
</g>
<g id="Group 34">
<circle id="Ellipse 16" cx="519.5" cy="411.5" r="19.75" stroke="#FF9770" stroke-width="1.5"/>
<path id="Vector_8" d="M528 412C528 407.584 524.416 404 520 404C515.584 404 512 407.584 512 412C512 416.416 515.584 420 520 420C524.416 420 528 416.416 528 412ZM522.4 407.6L525.2 410.4L522.4 413.2V411.2H519.2V409.6H522.4V407.6ZM517.6 416.4L514.8 413.6L517.6 410.8V412.8H520.8V414.4H517.6V416.4Z" fill="#56227C"/>
</g>
</g>
</g>
<g id="Group 40">
<rect id="Rectangle 36" x="308.5" y="271.5" width="155.589" height="163" rx="3.5" fill="#B9AFAF" fill-opacity="0.79" stroke="#B22BA5" stroke-width="3"/>
<rect id="Rectangle 37" x="354.429" y="400.429" width="74.1071" height="14.8214" rx="2" fill="#6B1FA7"/>
<g id="Group 38">
<path id="Vector_9" d="M386.286 299.643C381.787 299.643 378.143 302.963 378.143 307.054C378.143 311.144 381.787 314.464 386.286 314.464C390.794 314.464 394.446 311.144 394.446 307.054C394.446 302.963 390.794 299.643 386.286 299.643ZM391.936 304.089H389.531C389.27 303.163 388.895 302.274 388.406 301.451C389.906 301.918 391.153 302.867 391.936 304.089ZM386.295 301.155C386.971 302.044 387.501 303.03 387.852 304.089H384.738C385.088 303.03 385.618 302.044 386.295 301.155ZM379.985 308.536C379.855 308.061 379.773 307.565 379.773 307.054C379.773 306.542 379.855 306.046 379.985 305.571H382.74C382.675 306.061 382.626 306.55 382.626 307.054C382.626 307.557 382.675 308.047 382.74 308.536H379.985ZM380.654 310.018H383.058C383.319 310.944 383.694 311.833 384.183 312.656C382.683 312.189 381.436 311.248 380.654 310.018ZM383.058 304.089H380.654C381.436 302.859 382.683 301.918 384.183 301.451C383.694 302.274 383.319 303.163 383.058 304.089ZM386.295 312.952C385.618 312.063 385.088 311.078 384.738 310.018H387.852C387.501 311.078 386.971 312.063 386.295 312.952ZM388.202 308.536H384.387C384.314 308.047 384.257 307.557 384.257 307.054C384.257 306.55 384.314 306.053 384.387 305.571H388.202C388.276 306.053 388.333 306.55 388.333 307.054C388.333 307.557 388.276 308.047 388.202 308.536ZM388.406 312.656C388.895 311.833 389.27 310.944 389.531 310.018H391.936C391.153 311.241 389.906 312.189 388.406 312.656ZM389.849 308.536C389.914 308.047 389.963 307.557 389.963 307.054C389.963 306.55 389.914 306.061 389.849 305.571H392.604C392.735 306.046 392.816 306.542 392.816 307.054C392.816 307.565 392.735 308.061 392.604 308.536H389.849Z" fill="#56227C"/>
<circle id="Ellipse 17" cx="386.295" cy="307.795" r="17.7768" stroke="#FF9770" stroke-width="1.5"/>
</g>
<g id="Group 39">
<g id="Group 26">
<path id="Vector_10" d="M351.527 339.661C348.22 339.661 345.536 342.345 345.536 345.652C345.536 348.959 348.22 351.643 351.527 351.643C354.834 351.643 357.518 348.959 357.518 345.652C357.518 342.345 354.834 339.661 351.527 339.661ZM350.328 348.647L347.333 345.652L348.178 344.807L350.328 346.952L354.876 342.405L355.72 343.255L350.328 348.647Z" fill="#54B57B"/>
<path id="Line 68_5" d="M365.755 344.17H429.277" stroke="#54B57B" stroke-width="2"/>
</g>
<g id="Group 28">
<path id="Vector_11" d="M351.527 358.929C348.22 358.929 345.536 361.613 345.536 364.92C345.536 368.227 348.22 370.911 351.527 370.911C354.834 370.911 357.518 368.227 357.518 364.92C357.518 361.613 354.834 358.929 351.527 358.929ZM350.329 367.915L347.333 364.92L348.178 364.075L350.329 366.22L354.876 361.672L355.72 362.523L350.329 367.915Z" fill="#54B57B"/>
<path id="Line 68_6" d="M365.755 363.437H429.277" stroke="#54B57B" stroke-width="2"/>
</g>
<g id="Group 29">
<path id="Vector_12" d="M351.527 378.196C348.22 378.196 345.536 380.88 345.536 384.187C345.536 387.494 348.22 390.178 351.527 390.178C354.834 390.178 357.518 387.494 357.518 384.187C357.518 380.88 354.834 378.196 351.527 378.196ZM350.329 387.183L347.333 384.187L348.178 383.343L350.329 385.487L354.876 380.94L355.72 381.791L350.329 387.183Z" fill="#54B57B"/>
<path id="Line 68_7" d="M365.755 382.705H429.277" stroke="#54B57B" stroke-width="2"/>
</g>
</g>
</g>
<g id="Group 42">
<rect id="Rectangle 36_2" x="377.5" y="270.5" width="162" height="169.71" rx="3.5" fill="#B9AFAF" fill-opacity="0.79" stroke="#B22BA5" stroke-width="3"/>
<rect id="Rectangle 37_2" x="425.346" y="404.701" width="77.1028" height="15.4206" rx="2" fill="#6B1FA7"/>
<circle id="Ellipse 17_2" cx="458.5" cy="308.322" r="18.5257" stroke="#FF9770" stroke-width="1.5"/>
<g id="Group 26_2">
<path id="Vector_13" d="M422.327 341.477C418.886 341.477 416.093 344.269 416.093 347.71C416.093 351.15 418.886 353.943 422.327 353.943C425.767 353.943 428.56 351.15 428.56 347.71C428.56 344.269 425.767 341.477 422.327 341.477ZM421.08 350.826L417.963 347.71L418.842 346.831L421.08 349.062L425.811 344.331L426.69 345.217L421.08 350.826Z" fill="#54B57B"/>
<path id="Line 68_8" d="M437.13 346.168H503.22" stroke="#54B57B" stroke-width="2"/>
</g>
<g id="Group 28_2">
<path id="Vector_14" d="M422.327 361.523C418.886 361.523 416.093 364.316 416.093 367.757C416.093 371.197 418.886 373.99 422.327 373.99C425.767 373.99 428.56 371.197 428.56 367.757C428.56 364.316 425.767 361.523 422.327 361.523ZM421.08 370.873L417.963 367.757L418.842 366.878L421.08 369.109L425.811 364.378L426.69 365.263L421.08 370.873Z" fill="#54B57B"/>
<path id="Line 68_9" d="M437.13 366.214H503.22" stroke="#54B57B" stroke-width="2"/>
</g>
<g id="Group 29_2">
<path id="Vector_15" d="M422.327 381.57C418.886 381.57 416.093 384.363 416.093 387.803C416.093 391.244 418.886 394.036 422.327 394.036C425.767 394.036 428.56 391.244 428.56 387.803C428.56 384.363 425.767 381.57 422.327 381.57ZM421.08 390.92L417.963 387.803L418.842 386.924L421.08 389.156L425.811 384.425L426.69 385.31L421.08 390.92Z" fill="#54B57B"/>
<path id="Line 68_10" d="M437.13 386.261H503.22" stroke="#54B57B" stroke-width="2"/>
</g>
<path id="Vector_16" d="M464.745 304.159H463.357V310.404H454.336V311.792C454.336 312.174 454.649 312.486 455.03 312.486H462.664L465.439 315.262V304.853C465.439 304.471 465.127 304.159 464.745 304.159ZM461.97 308.322V302.077C461.97 301.695 461.657 301.383 461.276 301.383H452.255C451.873 301.383 451.561 301.695 451.561 302.077V311.792L454.336 309.016H461.276C461.657 309.016 461.97 308.704 461.97 308.322Z" fill="#56227C"/>
</g>
<g id="Group 41">
<rect id="Rectangle 36_3" x="330.5" y="269.5" width="160.366" height="168" rx="3.5" fill="#B9AFAF" fill-opacity="0.79" stroke="#B22BA5" stroke-width="3"/>
<rect id="Rectangle 37_3" x="377.857" y="402.357" width="76.3393" height="15.2679" rx="2" fill="#6B1FA7"/>
<circle id="Ellipse 17_3" cx="410.683" cy="306.933" r="18.3348" stroke="#FF9770" stroke-width="1.5"/>
<path id="Vector_17" d="M374.868 339.759C371.461 339.759 368.696 342.524 368.696 345.93C368.696 349.337 371.461 352.102 374.868 352.102C378.274 352.102 381.039 349.337 381.039 345.93C381.039 342.524 378.274 339.759 374.868 339.759ZM373.634 349.016L370.548 345.93L371.418 345.06L373.634 347.27L378.318 342.585L379.188 343.462L373.634 349.016Z" fill="#54B57B"/>
<path id="Line 68_11" d="M389.525 344.404H454.96" stroke="#54B57B" stroke-width="2"/>
<path id="Vector_18" d="M374.868 359.607C371.461 359.607 368.696 362.372 368.696 365.779C368.696 369.185 371.461 371.95 374.868 371.95C378.274 371.95 381.039 369.185 381.039 365.779C381.039 362.372 378.274 359.607 374.868 359.607ZM373.634 368.864L370.548 365.779L371.418 364.908L373.634 367.118L378.318 362.434L379.188 363.31L373.634 368.864Z" fill="#54B57B"/>
<path id="Line 68_12" d="M389.525 364.252H454.96" stroke="#54B57B" stroke-width="2"/>
<path id="Vector_19" d="M374.868 379.455C371.461 379.455 368.696 382.22 368.696 385.627C368.696 389.033 371.461 391.798 374.868 391.798C378.274 391.798 381.039 389.033 381.039 385.627C381.039 382.22 378.274 379.455 374.868 379.455ZM373.634 388.712L370.548 385.627L371.418 384.757L373.634 386.966L378.318 382.282L379.188 383.158L373.634 388.712Z" fill="#54B57B"/>
<path id="Line 68_13" d="M389.525 384.1H454.96" stroke="#54B57B" stroke-width="2"/>
<path id="Vector_20" d="M403.82 313.804L419.844 306.933L403.82 300.062L403.812 305.406L415.263 306.933L403.812 308.46L403.82 313.804Z" fill="#6B1FA7"/>
</g>
<path id="mouse" fill-rule="evenodd" clip-rule="evenodd" d="M712.343 305.062C711.619 304.798 710.882 305.417 711.016 306.175L713.817 322.06C713.95 322.818 714.855 323.147 715.444 322.652L719.515 319.237L724.263 324.895L727.968 321.786L723.22 316.128L727.801 312.284C728.39 311.789 728.223 310.842 727.5 310.579L712.343 305.062Z" fill="#9E068F"/>
</g>
</g>
</svg>
